<svg xmlns="http://www.w3.org/2000/svg" viewBox="0 0 1131.99 1130.8"><defs><style>.cls-1{fill:#3999e2;}</style></defs><title>logo-ciano-completo</title><g id="Camada_2" data-name="Camada 2"><g id="logo"><path class="cls-1" d="M608.47,320.68c-11.32-.87-19.61-3.28-27-9.34a42,42,0,0,1-7.6-8c-10.23-11.93-17.83-10.93-26.13,3.44h0c-2.76,2.33-27.53,35.44-36.19,32.24s-6.66-34.56,16.38-62.91c6.94-8.55,21.68-7.64,16.55-13.5-3.75-4.08-20.11-13.56-30.74-4.74-13.52,11.22-18.66,51.05-20,60.42-2.24,22.24,11.17,33.24,19.9,35.29,10,2.35,17.81.57,22.88-2s12.33-9.34,15.78-13.89c5.37-7.11,5.1-8.81,8.45-17.86.39-1.07,2.77-1.85,3.56-.54,0,0,11.69,16.71,23.4,18.62,8.77,1.43,17.06-.12,20.11-6.17,1.4-2.78,3.73-9.58.72-11.09"/><path class="cls-1" d="M936,794c-11.32-.88-19.61-3.29-27-9.34a42.32,42.32,0,0,1-7.6-8c-10.23-11.93-17.83-10.93-26.13,3.44h0c-2.76,2.33-27.53,35.45-36.19,32.25s-6.65-34.57,16.38-62.92c6.94-8.54,21.68-7.64,16.55-13.5-3.75-4.07-20.1-13.56-30.74-4.73-13.52,11.21-18.65,51-20,60.41-2.24,22.24,11.18,33.25,19.9,35.29,10,2.35,17.81.57,22.88-2s12.34-9.34,15.78-13.9c5.37-7.11,5.1-8.8,8.45-17.86.39-1.07,2.77-1.85,3.56-.53,0,0,11.69,16.7,23.41,18.62,8.76,1.43,17.05-.13,20.1-6.18,1.4-2.77,3.73-9.58.72-11.08"/><path class="cls-1" d="M435.2,322.61c-11.32-.87-19.61-3.29-27.05-9.34a42.35,42.35,0,0,1-7.6-8c-10.23-11.92-17.83-10.92-26.13,3.45h0c-2.75,2.32-27.53,35.44-36.19,32.24s-6.65-34.57,16.38-62.92c6.94-8.54,21.68-7.63,16.55-13.49-3.75-4.08-20.1-13.56-30.74-4.74-13.52,11.22-18.65,51.05-20,60.42-2.23,22.24,11.18,33.24,19.9,35.29,10,2.35,17.81.57,22.88-2s12.34-9.34,15.78-13.89c5.37-7.11,5.1-8.81,8.45-17.87.4-1.07,2.77-1.84,3.56-.53,0,0,11.7,16.7,23.41,18.62,8.76,1.43,17.05-.13,20.1-6.18,1.4-2.77,3.74-9.57.73-11.08"/><path class="cls-1" d="M454.25,356.28c-1.71-11.55-4-29-6.21-48.69s-4.07-41.73-5.29-62.38C442.5,240,442.26,235,442,230c-.12-2.34-.23-4.67-.34-6.94s-.33-4.48-.49-6.66c-.79-9-1.51-17.14-2.12-24-1.21-13.9-1.77-22.78-1.77-22.78s-.29-4.69-.77-12.22-.88-17.92-1-29.33.19-23.82,1.09-35.36a257,257,0,0,1,4-29.92,101.42,101.42,0,0,1,6.8-20.35c3.79-8.41,9.37-18,17.23-25.9a57.1,57.1,0,0,1,12.83-9.8c4.52-2.46,20.39-10.08,21.78-5,1.65,5.9-10.61,12.32-12.94,15A46.08,46.08,0,0,0,480,25.78c-3.67,6.82-6,14.9-7.62,22.17s-2.46,13.76-3.25,17.67a226.61,226.61,0,0,0-3.42,25.19c-.87,10.18-1.21,21.53-1.18,32.14s.41,20.43.77,27.62.67,11.71.67,11.71.59,8.71,1.87,22.54c.67,7,1.45,15.21,2.33,24.27.41,4.6.87,9.43,1.12,14.78.26,4.86.52,9.86.79,15,1.22,20.39,3.06,42.2,5.15,61.82s4.19,37,5.53,48.65c3.8,33.77,7.32,73.65,12.4,114.64,2.52,20.51,6.6,40.45,8.75,61.71s3.83,42.81,5,64.07c2.39,42.57,3.23,84.18,4.27,121.76s13.13,71.15,14.61,97.76c-4.79-25.9-16.08-60.14-20.18-98.9s-12.12-82-17.29-125S478,499.53,471.25,460.11s-12.89-75.3-17-103.83"/><path class="cls-1" d="M118.82,256.58c-1.66-17.67-8-70.62-8-70.62s-3.2-28.12-4.44-39.06c-.73-6.36-9.48-28.68-14-28.26s-8,23.8-7.23,30.13c1.1,9.74,4.27,37.56,4.27,37.56s5.38,53.58,8.1,71.33c7.9,51.51,21.43,133.47,30.42,173.27.85-40.36-5-130.78-9.08-174.35"/><path class="cls-1" d="M338.89,663c-.78-4.56-.82-8.81-1.18-13.42-1.43-18.67-5.73-149.06-2.9-167.39.11-3.95-5.33-89-5.42-91.3a64.44,64.44,0,0,0-1.05-8.7c-2.64-13.47-7.56-30.6-16-36.7a45.65,45.65,0,0,0-27.5-8c-7.6.46-14.63,3.51-20.88,8.12h0l-26.49,15.21c-2.45,2.49-53,30.55-84.56,45.09,0,0-46.89,21-54.72,16.84-14.7-7.78,2.91-46.21,5.26-55.07,10.43-39.41,81.05-137.77,97.25-164.62,20.07-33.26,59.67-90.07,56.46-91.9-1-.55-4.6,0-5.47.89-10.2,10.9-78.46,93.23-93.62,115.35-22,32-75.22,125.54-76,127.28-14.49,32.05-24.38,55.33-15.42,80.46,1.53,4.27,10.87,16.87,14.61,17.9,16.13,4.42,45.8,6.68,68.51-7.53,55.84-35,102.07-85.35,143.38-100,4.35-1.55,9.18.27,13,3,10.92,8-2.85,185-2.89,189.15-.16,20.92-2.38,116.27,1.44,135.84,3.21,16.47,21.91,31.82,40.9,28.56,7.13-1.22,16-8.2,16.8-12.46.54-2.72-.4-3.8-3.22-5.65-6.26-4.13-17.9-7.38-20.25-21.06"/><path class="cls-1" d="M95.63,108C87.74,105,72.79,97.83,60.12,91A201.05,201.05,0,0,1,36.27,75.83s-5.61-4-12-9.16A220.22,220.22,0,0,1,7,51C4.84,48.7,1.62,41.61.49,34.34S.29,20.1,3.57,18.21s9.17-2.79,15.14-.8S31,24.67,32.77,26.5c2.74,2.79,37.09,35.57,57.85,47,12.69,7,40.15,17.75,52.61,22.54,6.24,2.42,33.58,8.61,40.78,9.88,28.86,5.08,53.54,8.71,72,4.87-7.5,5.48-19.5,10.25-33.41,12.46s-29.6,2.57-45,1.66c-7.75-.46-15.24-1.09-22.85-1.94a216.45,216.45,0,0,1-22.51-3.76A245,245,0,0,1,95.63,108"/><path class="cls-1" d="M725.07,838.62a8.54,8.54,0,0,1,0-2.26c-6.08-.89-13.65.73-14.5-9a4.63,4.63,0,0,0-1.84-.85c-4.19,6.47-1.89,12,2.72,17.15,5.38,2.68,10.09,2.42,14.16-.7C725.44,841.52,725.26,840.07,725.07,838.62Z"/><path class="cls-1" d="M629.7,787.36c-9.65.92-11.73-11.49-16.21-19.65-2-11.36-5.06-21.8-12.08-28.68h0c-2.06-2.66-4.1-7.53-6.18-7.56-10.48-.18-20.81,1.56-30.34-8.26-2.91-3-8.72-2.11-8.6,7.67h0c-6.49,25.56-3.75,41.13-4.91,67.19-.48,4.33-.46,8.94-1,11.27-1.59,5.56-2.37,11.14-.09,16.75,1.93,2.42,3.27,3.08,5.46,3.06a54.58,54.58,0,0,0,7.35-.36s10.88-3.49,15.49-3.67c3.51-4.24-.29-11.4,2.93-15.76l3-16.07h0c6.07-9-.11-26.75,10.83-32.26h0c-.6,13.44,3.58,25.25,6.46,37.32,3.29,13.82,12.38,14,18.65,8.6C624,803.89,637,803.57,629.7,787.36Zm-42.56-31.78.1,0a1.33,1.33,0,0,1,0,.2A2.6,2.6,0,0,0,587.14,755.58Z"/><path class="cls-1" d="M1127.39,795c-2.47-1.36-7.07-2.09-10.27-2-4.72.12-8.28.34-12.95,2.71a77.58,77.58,0,0,0-7,3.79c-3.53,2.76-16.34,9-19-2.15a9.16,9.16,0,0,0,4.93-1.4,18.21,18.21,0,0,0,8.79-4.1,46.34,46.34,0,0,0,10.88-11.23h0c11.56-18.56,6.31-37.91-14-51.53-13-8.71-37.13.38-44.65,16.8h0c-5.57,3.49-6.35,9.77-7.29,15.92-4.7,30.48,5.77,49.24,35.3,63.31,4.5,1.64,9,3.52,13.85,2.67,6.73-2.14,13.77-3.15,19.85-7.43,4.15-3.19,10.67-11.44,11.54-12.74C1122.06,801.47,1130.22,796.57,1127.39,795Zm-55.59-19.93c-8.52-2.15-8.71-10.56-5.49-18.73l0,.17c5.4-4.82,10.5-12,17.6-2.66a1.86,1.86,0,0,0,.23,1.67,12.33,12.33,0,0,0-1.25,4.72C1082.9,768.79,1081.3,777.5,1071.8,775.09Z"/><path class="cls-1" d="M818.34,749.38c-5.66-7.11-11.28-7-15.07-6.77a14.62,14.62,0,0,0-8.2,3.73c-1.09,1-13.56,13.23-19.18,18.83-8.85,8.82-8.62-.5-9.43-6.87-1-7.57.15-12.76-.57-19.77-1-9.95-9.84-11.87-17.35-12.73-9.33-1.08-9.44,9.26-9.4,14.28.09,10.45,1.2,15.81,3.2,27.45v0c3.06,16.48,7.23,32.85,8.84,49.46,1.48,15.22,10.35,13.88,20.63,11,5.46-1.51,9.48-4.5,11.19-10.86,2.8-10.46.5-20.34,4.21-30.56,1.44-7.92,2.68-12.41,7-17.32,3.85-4.21,6.92-6.78,14.43-12.38C812.5,754.1,821.33,753.13,818.34,749.38Z"/><path class="cls-1" d="M614,379.75a33.94,33.94,0,0,0,2.48-4.13c-1.34-1.51-2.6-3.1-3.91-4.64-7.49.32-15,.12-22.37,1.81-9.93,2.5-20.94-2.92-30.39,3.11a9,9,0,0,1-2.83,0h0c-17.08-6.25-34.84-1.42-52.24-2.44h0c-11,.52-22.8-5.16-32.77,3.22h0c-8-.18-16.07-.51-24.1-.5-8.81,0-18.56-2.95-25,5.39h0a7.27,7.27,0,0,0-2.63.17c-7.64-9.09-15.43-3.23-23.19-.17h0a4.36,4.36,0,0,0-3.06,0c-5.51-2.53-11,.09-16.49,0h-5.72c-3.15-.88-6.89-1.88-9.24-.65-18.35-.77-36.48,1.68-54.74,3.73,35,8.74,70.65,8.85,106.34,8.84h0l.89.26.91-.22h0c25.27,5,50.48,1.66,75.7-.42h0c18.47-1,37.23,2.42,55.43-2.72h0c20.14,2.17,40.07.33,60-1.64C609.51,385.82,611.86,382.84,614,379.75Z"/><path class="cls-1" d="M79.46,927l.08-.08-.06.11Z"/><path class="cls-1" d="M79.42,926.92v0h0Z"/><path class="cls-1" d="M455.54,430.43c0-.06,0-.11,0-.17l.23.07Z"/><path class="cls-1" d="M524.55,438.85l-.39-.37h.5C524.61,438.61,524.59,438.73,524.55,438.85Z"/><path class="cls-1" d="M729.63,906.44c.28-3.12.66-6.38-.89-9.41-.68-3.47-.26-7.22-2.64-10.27a7.42,7.42,0,0,0,1-5.4c-2.57-4.45-4.18-33.48-5.43-41.33a4.9,4.9,0,0,0,.54,0l-.18-1.37a9.17,9.17,0,0,1,.88-5.15,81.58,81.58,0,0,0-1.25-9.88c-3.85-18.67,1.77-59.14-3.92-77.65v0c1.78-2.52,1.79-5-.26-7.41h0c-.62-15.56,1.64-10.16-4.35-25.42h0c-2.41-1.94-2.2-3.87,0-5.8,2.57-1.31,2.63-3.46,2.49-5.78q-1.35-23.09-2.6-46.17h0c3.58-9.08-.51-18.26.46-27.37h0c0-18.43,2.73-37-2.55-55.2h0a2.11,2.11,0,0,0-.42-2,2.75,2.75,0,0,0,.6-1.86c3.82-11.52,3-23-.77-34.51a.2.2,0,0,1,.07-.06h0c2.73-7.22-2.64-13.89-1.43-21.25,2.42-14.8,1.33-29.67-1.76-44.39-1-7.57-2.6-15.14-2.84-22.73-.18-5.64-2.93-8.9-8.35-9.25-6.33-.41-8.48,5.07-8.72,9.18-.92,15.19-2.62,30.45.3,45.58a16.29,16.29,0,0,0,1.18,5.29q.28,16.14.56,32.29l0,44c.93,15.3-1.8,30.75,1.34,46a11.5,11.5,0,0,0,1,4.31c-1.61,12.75-2.6,25.5,0,38.24a.73.73,0,0,0,.07,1.24c-3.52,18.62.42,55.75.41,55.74.09.9.26,2.18.49,3.39l-.12,0c-9.51-.14-33.69,29.4-40.72,43.26,0,0-9.27,18.13-8.55,34.91,3,21.13,8.83,27,27.18,27.56,3.73.63,20.11,3,23.91,1h0c5.92,5.47,6.26,12.34,6.24,19.29a12.29,12.29,0,0,1,1.94,6.56v1.78c0,1.24,0,2.47.12,3.71a14.88,14.88,0,0,0,.64,2.1l-.42-1a13.66,13.66,0,0,1,.67,8.4c-.06.24-.14.48-.22.72,1,5.2,1.8,9.31,1.79,11.06a9.38,9.38,0,0,0,1.64,3.45l.07.05c-.79,5.68-.47,12.23,4.64,14.28,7.26,2.92,4.3,7.11,5,11,2.75,3.17,5.37,7.63,10.5,6C731.86,914.6,729.34,909.81,729.63,906.44ZM675.23,809a7.24,7.24,0,0,1-7-6.31c-2.44-29.9,26.72-70,26.72-70s.25,59.33.59,62.73h0l.27,2.76C696.32,808.07,677,809.08,675.23,809Z"/><path class="cls-1" d="M1031.81,906.44c.28-3.12.67-6.38-.89-9.41-.67-3.47-.26-7.22-2.64-10.27a7.42,7.42,0,0,0,1-5.4c-1.32-2.3-2.4-11.17-3.3-20.28a9.1,9.1,0,0,1-.27-2.21v-.62c-.72-7.56-1.33-14.85-1.86-18.22l.41,0c0-.93,0-1.87,0-2.82a8.12,8.12,0,0,1,.17-1.57,8.46,8.46,0,0,1,.61-3.28,75.16,75.16,0,0,0-1.15-8.74c-3.84-18.67,1.77-59.14-3.92-77.65v0c1.78-2.52,1.79-5-.26-7.41h0c-.62-15.56,1.65-10.16-4.35-25.42h0c-2.41-1.94-2.2-3.87,0-5.8,2.57-1.31,2.63-3.46,2.49-5.78q-1.33-23.09-2.6-46.17h0c3.59-9.08-.51-18.26.46-27.37h0c0-18.43,2.73-37-2.55-55.2h0a2.11,2.11,0,0,0-.42-2,2.82,2.82,0,0,0,.61-1.86c3.81-11.52,3-23-.78-34.51,0,0,0,0,.07-.06h0c2.73-7.22-2.64-13.89-1.43-21.25,2.42-14.8,1.33-29.67-1.76-44.39-1-7.57-2.6-15.14-2.84-22.73-.17-5.64-2.93-8.9-8.34-9.25-6.34-.41-8.48,5.07-8.73,9.18-.92,15.19-2.62,30.45.3,45.58a16.29,16.29,0,0,0,1.18,5.29q.29,16.14.56,32.29l0,44c.94,15.3-1.8,30.75,1.34,46a11.7,11.7,0,0,0,1,4.31c-1.61,12.75-2.6,25.5,0,38.24a.73.73,0,0,0,.07,1.24c-3.52,18.62.43,55.75.41,55.74.09.9.26,2.18.49,3.39l-.12,0c-9.51-.14-33.69,29.4-40.72,43.26,0,0-9.27,18.13-8.54,34.91,3,21.13,8.82,27,27.17,27.56,3.73.63,20.11,3,23.92,1h0c6.35,5.88,6.27,13.36,6.23,20.84.56,13.06,4.55,28,4.52,31.81a9.38,9.38,0,0,0,1.64,3.45l.07.05c-.79,5.68-.47,12.23,4.64,14.28,7.26,2.92,4.3,7.11,5,11,2.75,3.17,3.55,2.45,8.67.81C1032.22,909.42,1031.52,909.81,1031.81,906.44ZM977.41,809a7.24,7.24,0,0,1-7-6.31c-2.44-29.9,26.72-70,26.72-70s.25,59.33.59,62.73h0l.27,2.76C998.5,808.07,979.19,809.08,977.41,809Z"/><path class="cls-1" d="M705.59,856.26c0,1.24,0,2.48.11,3.71a27.21,27.21,0,0,0,9.09-1.19c-3-4.08-3.48-8.58-3.11-13.23h-9.95a12.72,12.72,0,0,1,3.86,9Z"/><path class="cls-1" d="M725.74,843.82c-2.71.33-5.43.74-8.15,1.25L726,861.7c.83-.05,1.63-.13,2.42-.21C727.3,855.63,726.5,849.72,725.74,843.82Z"/><path class="cls-1" d="M775.86,859.59a.34.34,0,0,1,0,.1c1.14,0,2.28.08,3.42.11C778.13,859.73,777,859.65,775.86,859.59Z"/><path class="cls-1" d="M711.28,542.68c-.1.23-.2.45-.29.68a4.66,4.66,0,0,1-.28-.59C710.92,542.75,711.08,542.71,711.28,542.68Z"/><path class="cls-1" d="M710.81,695.31l.87-.23v.31Z"/><path class="cls-1" d="M733.62,679.43h0v-.14l.28,0C733.82,679.36,733.72,679.38,733.62,679.43Z"/><polygon class="cls-1" points="914.62 875.85 914.62 875.85 914.62 875.85 914.62 875.85"/><path class="cls-1" d="M324,869.1c39.24-4.58,467.14-11.12,581.53-11.92,96.29-.67,223.68,0,223.68,0s-49.63,22-80.88,26.38c-34.77,4.91-64.57,4.25-161.35,4.25-95.19,0-595.19-5.92-595.19-5.92S294.26,872.56,324,869.1Z"/><path class="cls-1" d="M590.16,1120C618,1109.9,906,971.16,982.64,933.45c64.53-31.74,149.35-74.76,149.35-74.76s-40.84,2.19-63.26,9.74c-24.94,8.41-44.61,18.8-109.23,51.15C895.94,951.4,564.16,1122.4,564.16,1122.4S569.07,1127.7,590.16,1120Z"/><path class="cls-1" d="M349.57,981.12c2.36-27.54,64.71-319.92,82.19-397.9C446.47,517.57,467.25,431,467.25,431s10.72,37.82,9.49,59.9c-1.36,24.57-6.65,44.73-22,110.58-15.11,64.77-99.45,403.91-99.45,403.91S347.78,1002,349.57,981.12Z"/><path class="cls-1" d="M573.25,1103c-.28-32.59-43.48-382.6-55.91-476.06-10.47-78.67-25.76-182.55-25.76-182.55s-14.65,43.19-15.14,69.24c-.55,29,3.5,53.21,14.64,132.2,11,77.69,74,485,74,485S573.46,1127.66,573.25,1103Z"/><path class="cls-1" d="M608.47,320.68c-11.32-.87-19.61-3.28-27-9.34a42,42,0,0,1-7.6-8c-10.23-11.93-17.83-10.93-26.13,3.44h0c-2.76,2.33-27.53,35.44-36.19,32.24s-6.66-34.56,16.38-62.91c6.94-8.55,21.68-7.64,16.55-13.5-3.75-4.08-20.11-13.56-30.74-4.74-13.52,11.22-18.66,51.05-20,60.42-2.24,22.24,11.17,33.24,19.9,35.29,10,2.35,17.81.57,22.88-2s12.33-9.34,15.78-13.89c5.37-7.11,5.1-8.81,8.45-17.86.39-1.07,2.77-1.85,3.56-.54,0,0,11.69,16.71,23.4,18.62,8.77,1.43,17.06-.12,20.11-6.17,1.4-2.78,3.73-9.58.72-11.09"/><path class="cls-1" d="M936,794c-11.32-.88-19.61-3.29-27-9.34a42.32,42.32,0,0,1-7.6-8c-10.23-11.93-17.83-10.93-26.13,3.44h0c-2.76,2.33-27.53,35.45-36.19,32.25s-6.65-34.57,16.38-62.92c6.94-8.54,21.68-7.64,16.55-13.5-3.75-4.07-20.1-13.56-30.74-4.73-13.52,11.21-18.65,51-20,60.41-2.24,22.24,11.18,33.25,19.9,35.29,10,2.35,17.81.57,22.88-2s12.34-9.34,15.78-13.9c5.37-7.11,5.1-8.8,8.45-17.86.39-1.07,2.77-1.85,3.56-.53,0,0,11.69,16.7,23.41,18.62,8.76,1.43,17.05-.13,20.1-6.18,1.4-2.77,3.73-9.58.72-11.08"/><path class="cls-1" d="M435.2,322.61c-11.32-.87-19.61-3.29-27.05-9.34a42.35,42.35,0,0,1-7.6-8c-10.23-11.92-17.83-10.92-26.13,3.45h0c-2.75,2.32-27.53,35.44-36.19,32.24s-6.65-34.57,16.38-62.92c6.94-8.54,21.68-7.63,16.55-13.49-3.75-4.08-20.1-13.56-30.74-4.74-13.52,11.22-18.65,51.05-20,60.42-2.23,22.24,11.18,33.24,19.9,35.29,10,2.35,17.81.57,22.88-2s12.34-9.34,15.78-13.89c5.37-7.11,5.1-8.81,8.45-17.87.4-1.07,2.77-1.84,3.56-.53,0,0,11.7,16.7,23.41,18.62,8.76,1.43,17.05-.13,20.1-6.18,1.4-2.77,3.74-9.57.73-11.08"/><path class="cls-1" d="M454.25,356.28c-1.71-11.55-4-29-6.21-48.69s-4.07-41.73-5.29-62.38C442.5,240,442.26,235,442,230c-.12-2.34-.23-4.67-.34-6.94s-.33-4.48-.49-6.66c-.79-9-1.51-17.14-2.12-24-1.21-13.9-1.77-22.78-1.77-22.78s-.29-4.69-.77-12.22-.88-17.92-1-29.33.19-23.82,1.09-35.36a257,257,0,0,1,4-29.92,101.42,101.42,0,0,1,6.8-20.35c3.79-8.41,9.37-18,17.23-25.9a57.1,57.1,0,0,1,12.83-9.8c4.52-2.46,20.39-10.08,21.78-5,1.65,5.9-10.61,12.32-12.94,15A46.08,46.08,0,0,0,480,25.78c-3.67,6.82-6,14.9-7.62,22.17s-2.46,13.76-3.25,17.67a226.61,226.61,0,0,0-3.42,25.19c-.87,10.18-1.21,21.53-1.18,32.14s.41,20.43.77,27.62.67,11.71.67,11.71.59,8.71,1.87,22.54c.67,7,1.45,15.21,2.33,24.27.41,4.6.87,9.43,1.12,14.78.26,4.86.52,9.86.79,15,1.22,20.39,3.06,42.2,5.15,61.82s4.19,37,5.53,48.65c3.8,33.77,7.32,73.65,12.4,114.64,2.52,20.51,6.6,40.45,8.75,61.71s3.83,42.81,5,64.07c2.39,42.57,3.23,84.18,4.27,121.76s13.13,71.15,14.61,97.76c-4.79-25.9-16.08-60.14-20.18-98.9s-12.12-82-17.29-125S478,499.53,471.25,460.11s-12.89-75.3-17-103.83"/><path class="cls-1" d="M118.82,256.58c-1.66-17.67-8-70.62-8-70.62s-3.2-28.12-4.44-39.06c-.73-6.36-9.48-28.68-14-28.26s-8,23.8-7.23,30.13c1.1,9.74,4.27,37.56,4.27,37.56s5.38,53.58,8.1,71.33c7.9,51.51,21.43,133.47,30.42,173.27.85-40.36-5-130.78-9.08-174.35"/><path class="cls-1" d="M338.89,663c-.78-4.56-.82-8.81-1.18-13.42-1.43-18.67-5.73-149.06-2.9-167.39.11-3.95-5.33-89-5.42-91.3a64.44,64.44,0,0,0-1.05-8.7c-2.64-13.47-7.56-30.6-16-36.7a45.65,45.65,0,0,0-27.5-8c-7.6.46-14.63,3.51-20.88,8.12h0l-26.49,15.21c-2.45,2.49-53,30.55-84.56,45.09,0,0-46.89,21-54.72,16.84-14.7-7.78,2.91-46.21,5.26-55.07,10.43-39.41,81.05-137.77,97.25-164.62,20.07-33.26,59.67-90.07,56.46-91.9-1-.55-4.6,0-5.47.89-10.2,10.9-78.46,93.23-93.62,115.35-22,32-75.22,125.54-76,127.28-14.49,32.05-24.38,55.33-15.42,80.46,1.53,4.27,10.87,16.87,14.61,17.9,16.13,4.42,45.8,6.68,68.51-7.53,55.84-35,102.07-85.35,143.38-100,4.35-1.55,9.18.27,13,3,10.92,8-2.85,185-2.89,189.15-.16,20.92-2.38,116.27,1.44,135.84,3.21,16.47,21.91,31.82,40.9,28.56,7.13-1.22,16-8.2,16.8-12.46.54-2.72-.4-3.8-3.22-5.65-6.26-4.13-17.9-7.38-20.25-21.06"/><path class="cls-1" d="M95.63,108C87.74,105,72.79,97.83,60.12,91A201.05,201.05,0,0,1,36.27,75.83s-5.61-4-12-9.16A220.22,220.22,0,0,1,7,51C4.84,48.7,1.62,41.61.49,34.34S.29,20.1,3.57,18.21s9.17-2.79,15.14-.8S31,24.67,32.77,26.5c2.74,2.79,37.09,35.57,57.85,47,12.69,7,40.15,17.75,52.61,22.54,6.24,2.42,33.58,8.61,40.78,9.88,28.86,5.08,53.54,8.71,72,4.87-7.5,5.48-19.5,10.25-33.41,12.46s-29.6,2.57-45,1.66c-7.75-.46-15.24-1.09-22.85-1.94a216.45,216.45,0,0,1-22.51-3.76A245,245,0,0,1,95.63,108"/><path class="cls-1" d="M725.07,838.62a8.54,8.54,0,0,1,0-2.26c-6.08-.89-13.65.73-14.5-9a4.63,4.63,0,0,0-1.84-.85c-4.19,6.47-1.89,12,2.72,17.15,5.38,2.68,10.09,2.42,14.16-.7C725.44,841.52,725.26,840.07,725.07,838.62Z"/><path class="cls-1" d="M629.7,787.36c-9.65.92-11.73-11.49-16.21-19.65-2-11.36-5.06-21.8-12.08-28.68h0c-2.06-2.66-4.1-7.53-6.18-7.56-10.48-.18-20.81,1.56-30.34-8.26-2.91-3-8.72-2.11-8.6,7.67h0c-6.49,25.56-3.75,41.13-4.91,67.19-.48,4.33-.46,8.94-1,11.27-1.59,5.56-2.37,11.14-.09,16.75,1.93,2.42,3.27,3.08,5.46,3.06a54.58,54.58,0,0,0,7.35-.36s10.88-3.49,15.49-3.67c3.51-4.24-.29-11.4,2.93-15.76l3-16.07h0c6.07-9-.11-26.75,10.83-32.26h0c-.6,13.44,3.58,25.25,6.46,37.32,3.29,13.82,12.38,14,18.65,8.6C624,803.89,637,803.57,629.7,787.36Zm-42.56-31.78.1,0a1.33,1.33,0,0,1,0,.2A2.6,2.6,0,0,0,587.14,755.58Z"/><path class="cls-1" d="M1127.39,795c-2.47-1.36-7.07-2.09-10.27-2-4.72.12-8.28.34-12.95,2.71a77.58,77.58,0,0,0-7,3.79c-3.53,2.76-16.34,9-19-2.15a9.16,9.16,0,0,0,4.93-1.4,18.21,18.21,0,0,0,8.79-4.1,46.34,46.34,0,0,0,10.88-11.23h0c11.56-18.56,6.31-37.91-14-51.53-13-8.71-37.13.38-44.65,16.8h0c-5.57,3.49-6.35,9.77-7.29,15.92-4.7,30.48,5.77,49.24,35.3,63.31,4.5,1.64,9,3.52,13.85,2.67,6.73-2.14,13.77-3.15,19.85-7.43,4.15-3.19,10.67-11.44,11.54-12.74C1122.06,801.47,1130.22,796.57,1127.39,795Zm-55.59-19.93c-8.52-2.15-8.71-10.56-5.49-18.73l0,.17c5.4-4.82,10.5-12,17.6-2.66a1.86,1.86,0,0,0,.23,1.67,12.33,12.33,0,0,0-1.25,4.72C1082.9,768.79,1081.3,777.5,1071.8,775.09Z"/><path class="cls-1" d="M818.34,749.38c-5.66-7.11-11.28-7-15.07-6.77a14.62,14.62,0,0,0-8.2,3.73c-1.09,1-13.56,13.23-19.18,18.83-8.85,8.82-8.62-.5-9.43-6.87-1-7.57.15-12.76-.57-19.77-1-9.95-9.84-11.87-17.35-12.73-9.33-1.08-9.44,9.26-9.4,14.28.09,10.45,1.2,15.81,3.2,27.45v0c3.06,16.48,7.23,32.85,8.84,49.46,1.48,15.22,10.35,13.88,20.63,11,5.46-1.51,9.48-4.5,11.19-10.86,2.8-10.46.5-20.34,4.21-30.56,1.44-7.92,2.68-12.41,7-17.32,3.85-4.21,6.92-6.78,14.43-12.38C812.5,754.1,821.33,753.13,818.34,749.38Z"/><path class="cls-1" d="M614,379.75a33.94,33.94,0,0,0,2.48-4.13c-1.34-1.51-2.6-3.1-3.91-4.64-7.49.32-15,.12-22.37,1.81-9.93,2.5-20.94-2.92-30.39,3.11a9,9,0,0,1-2.83,0h0c-17.08-6.25-34.84-1.42-52.24-2.44h0c-11,.52-22.8-5.16-32.77,3.22h0c-8-.18-16.07-.51-24.1-.5-8.81,0-18.56-2.95-25,5.39h0a7.27,7.27,0,0,0-2.63.17c-7.64-9.09-15.43-3.23-23.19-.17h0a4.36,4.36,0,0,0-3.06,0c-5.51-2.53-11,.09-16.49,0h-5.72c-3.15-.88-6.89-1.88-9.24-.65-18.35-.77-36.48,1.68-54.74,3.73,35,8.74,70.65,8.85,106.34,8.84h0l.89.26.91-.22h0c25.27,5,50.48,1.66,75.7-.42h0c18.47-1,37.23,2.42,55.43-2.72h0c20.14,2.17,40.07.33,60-1.64C609.51,385.82,611.86,382.84,614,379.75Z"/><path class="cls-1" d="M79.46,927l.08-.08-.06.11Z"/><path class="cls-1" d="M79.42,926.92v0h0Z"/><path class="cls-1" d="M455.54,430.43c0-.06,0-.11,0-.17l.23.07Z"/><path class="cls-1" d="M524.55,438.85l-.39-.37h.5C524.61,438.61,524.59,438.73,524.55,438.85Z"/><path class="cls-1" d="M729.63,906.44c.28-3.12.66-6.38-.89-9.41-.68-3.47-.26-7.22-2.64-10.27a7.42,7.42,0,0,0,1-5.4c-2.57-4.45-4.18-33.48-5.43-41.33a4.9,4.9,0,0,0,.54,0l-.18-1.37a9.17,9.17,0,0,1,.88-5.15,81.58,81.58,0,0,0-1.25-9.88c-3.85-18.67,1.77-59.14-3.92-77.65v0c1.78-2.52,1.79-5-.26-7.41h0c-.62-15.56,1.64-10.16-4.35-25.42h0c-2.41-1.94-2.2-3.87,0-5.8,2.57-1.31,2.63-3.46,2.49-5.78q-1.35-23.09-2.6-46.17h0c3.58-9.08-.51-18.26.46-27.37h0c0-18.43,2.73-37-2.55-55.2h0a2.11,2.11,0,0,0-.42-2,2.75,2.75,0,0,0,.6-1.86c3.82-11.52,3-23-.77-34.51a.2.2,0,0,1,.07-.06h0c2.73-7.22-2.64-13.89-1.43-21.25,2.42-14.8,1.33-29.67-1.76-44.39-1-7.57-2.6-15.14-2.84-22.73-.18-5.64-2.93-8.9-8.35-9.25-6.33-.41-8.48,5.07-8.72,9.18-.92,15.19-2.62,30.45.3,45.58a16.29,16.29,0,0,0,1.18,5.29q.28,16.14.56,32.29l0,44c.93,15.3-1.8,30.75,1.34,46a11.5,11.5,0,0,0,1,4.31c-1.61,12.75-2.6,25.5,0,38.24a.73.73,0,0,0,.07,1.24c-3.52,18.62.42,55.75.41,55.74.09.9.26,2.18.49,3.39l-.12,0c-9.51-.14-33.69,29.4-40.72,43.26,0,0-9.27,18.13-8.55,34.91,3,21.13,8.83,27,27.18,27.56,3.73.63,20.11,3,23.91,1h0c5.92,5.47,6.26,12.34,6.24,19.29a12.29,12.29,0,0,1,1.94,6.56v1.78c0,1.24,0,2.47.12,3.71a14.88,14.88,0,0,0,.64,2.1l-.42-1a13.66,13.66,0,0,1,.67,8.4c-.06.24-.14.48-.22.72,1,5.2,1.8,9.31,1.79,11.06a9.38,9.38,0,0,0,1.64,3.45l.07.05c-.79,5.68-.47,12.23,4.64,14.28,7.26,2.92,4.3,7.11,5,11,2.75,3.17,5.37,7.63,10.5,6C731.86,914.6,729.34,909.81,729.63,906.44ZM675.23,809a7.24,7.24,0,0,1-7-6.31c-2.44-29.9,26.72-70,26.72-70s.25,59.33.59,62.73h0l.27,2.76C696.32,808.07,677,809.08,675.23,809Z"/><path class="cls-1" d="M1031.81,906.44c.28-3.12.67-6.38-.89-9.41-.67-3.47-.26-7.22-2.64-10.27a7.42,7.42,0,0,0,1-5.4c-1.32-2.3-2.4-11.17-3.3-20.28a9.1,9.1,0,0,1-.27-2.21v-.62c-.72-7.56-1.33-14.85-1.86-18.22l.41,0c0-.93,0-1.87,0-2.82a8.12,8.12,0,0,1,.17-1.57,8.46,8.46,0,0,1,.61-3.28,75.16,75.16,0,0,0-1.15-8.74c-3.84-18.67,1.77-59.14-3.92-77.65v0c1.78-2.52,1.79-5-.26-7.41h0c-.62-15.56,1.65-10.16-4.35-25.42h0c-2.41-1.94-2.2-3.87,0-5.8,2.57-1.31,2.63-3.46,2.49-5.78q-1.33-23.09-2.6-46.17h0c3.59-9.08-.51-18.26.46-27.37h0c0-18.43,2.73-37-2.55-55.2h0a2.11,2.11,0,0,0-.42-2,2.82,2.82,0,0,0,.61-1.86c3.81-11.52,3-23-.78-34.51,0,0,0,0,.07-.06h0c2.73-7.22-2.64-13.89-1.43-21.25,2.42-14.8,1.33-29.67-1.76-44.39-1-7.57-2.6-15.14-2.84-22.73-.17-5.64-2.93-8.9-8.34-9.25-6.34-.41-8.48,5.07-8.73,9.18-.92,15.19-2.62,30.45.3,45.58a16.29,16.29,0,0,0,1.18,5.29q.29,16.14.56,32.29l0,44c.94,15.3-1.8,30.75,1.34,46a11.7,11.7,0,0,0,1,4.31c-1.61,12.75-2.6,25.5,0,38.24a.73.73,0,0,0,.07,1.24c-3.52,18.62.43,55.75.41,55.74.09.9.26,2.18.49,3.39l-.12,0c-9.51-.14-33.69,29.4-40.72,43.26,0,0-9.27,18.13-8.54,34.91,3,21.13,8.82,27,27.17,27.56,3.73.63,20.11,3,23.92,1h0c6.35,5.88,6.27,13.36,6.23,20.84.56,13.06,4.55,28,4.52,31.81a9.38,9.38,0,0,0,1.64,3.45l.07.05c-.79,5.68-.47,12.23,4.64,14.28,7.26,2.92,4.3,7.11,5,11,2.75,3.17,3.55,2.45,8.67.81C1032.22,909.42,1031.52,909.81,1031.81,906.44ZM977.41,809a7.24,7.24,0,0,1-7-6.31c-2.44-29.9,26.72-70,26.72-70s.25,59.33.59,62.73h0l.27,2.76C998.5,808.07,979.19,809.08,977.41,809Z"/><path class="cls-1" d="M705.59,856.26c0,1.24,0,2.48.11,3.71a27.21,27.21,0,0,0,9.09-1.19c-3-4.08-3.48-8.58-3.11-13.23h-9.95a12.72,12.72,0,0,1,3.86,9Z"/><path class="cls-1" d="M725.74,843.82c-2.71.33-5.43.74-8.15,1.25L726,861.7c.83-.05,1.63-.13,2.42-.21C727.3,855.63,726.5,849.72,725.74,843.82Z"/><path class="cls-1" d="M775.86,859.59a.34.34,0,0,1,0,.1c1.14,0,2.28.08,3.42.11C778.13,859.73,777,859.65,775.86,859.59Z"/><path class="cls-1" d="M711.28,542.68c-.1.23-.2.45-.29.68a4.66,4.66,0,0,1-.28-.59C710.92,542.75,711.08,542.71,711.28,542.68Z"/><path class="cls-1" d="M710.81,695.31l.87-.23v.31Z"/><path class="cls-1" d="M733.62,679.43h0v-.14l.28,0C733.82,679.36,733.72,679.38,733.62,679.43Z"/><polygon class="cls-1" points="914.62 875.85 914.62 875.85 914.62 875.85 914.62 875.85"/><path class="cls-1" d="M194.09,869.1c45.57-4.58,542.52-11.12,675.37-11.92,111.82-.67,259.77,0,259.77,0s-57.64,22-93.94,26.38c-40.37,4.91-75,4.25-187.38,4.25-110.55,0-691.23-5.92-691.23-5.92S159.53,872.56,194.09,869.1Z"/><path class="cls-1" d="M590.16,1120C618,1109.9,906,971.16,982.64,933.45c64.53-31.74,149.35-74.76,149.35-74.76s-40.84,2.19-63.26,9.74c-24.94,8.41-44.61,18.8-109.23,51.15C895.94,951.4,564.16,1122.4,564.16,1122.4S569.07,1127.7,590.16,1120Z"/><path class="cls-1" d="M349.57,981.12c2.36-27.54,64.71-319.92,82.19-397.9C446.47,517.57,467.25,431,467.25,431s10.72,37.82,9.49,59.9c-1.36,24.57-6.65,44.73-22,110.58-15.11,64.77-99.45,403.91-99.45,403.91S347.78,1002,349.57,981.12Z"/><path class="cls-1" d="M573.25,1103c-.28-32.59-43.48-382.6-55.91-476.06-10.47-78.67-25.76-182.55-25.76-182.55s-14.65,43.19-15.14,69.24c-.55,29,3.5,53.21,14.64,132.2,11,77.69,74,485,74,485S573.46,1127.66,573.25,1103Z"/></g></g></svg>